<svg width="120" height="120" viewBox="0 0 120 120" fill="none" xmlns="http://www.w3.org/2000/svg">
  <!-- Helmet body -->
  <ellipse cx="60" cy="65" rx="35" ry="40" fill="#E8E8E8"/>
  <ellipse cx="60" cy="65" rx="35" ry="40" fill="url(#helmet-gradient)"/>
  
  <!-- Red top stripe -->
  <path d="M 30 45 Q 60 35 90 45 Q 90 50 60 42 Q 30 50 30 45 Z" fill="#E63946"/>
  
  <!-- Black middle stripe -->
  <path d="M 28 55 Q 60 48 92 55 Q 92 58 60 52 Q 28 58 28 55 Z" fill="#1A1A1A"/>
  
  <!-- Red bottom stripe -->
  <path d="M 26 65 Q 60 60 94 65 Q 94 68 60 63 Q 26 68 26 65 Z" fill="#E63946"/>
  
  <!-- Visor (dark tinted) -->
  <ellipse cx="60" cy="60" rx="25" ry="18" fill="#1A1A1A" opacity="0.9"/>
  
  <!-- Visor highlight -->
  <ellipse cx="55" cy="55" rx="8" ry="5" fill="#4A4A4A" opacity="0.6"/>
  
  <!-- Chin guard -->
  <path d="M 35 85 Q 60 95 85 85 L 80 90 Q 60 98 40 90 Z" fill="#E8E8E8"/>
  <path d="M 35 85 Q 60 95 85 85 L 80 90 Q 60 98 40 90 Z" fill="url(#helmet-gradient)"/>
  
  <!-- Air vents -->
  <ellipse cx="45" cy="70" rx="2" ry="4" fill="#1A1A1A" opacity="0.5"/>
  <ellipse cx="75" cy="70" rx="2" ry="4" fill="#1A1A1A" opacity="0.5"/>
  
  <defs>
    <linearGradient id="helmet-gradient" x1="0%" y1="0%" x2="100%" y2="100%">
      <stop offset="0%" style="stop-color:#FFFFFF;stop-opacity:0.3" />
      <stop offset="100%" style="stop-color:#CCCCCC;stop-opacity:0.1" />
    </linearGradient>
  </defs>
</svg>

